<?xml version="1.0" encoding="utf-8"?>
<!-- Generator: Adobe Illustrator 18.0.0, SVG Export Plug-In . SVG Version: 6.00 Build 0)  -->
<!DOCTYPE svg PUBLIC "-//W3C//DTD SVG 1.1//EN" "http://www.w3.org/Graphics/SVG/1.1/DTD/svg11.dtd">
<svg version="1.1" id="Calque_1" xmlns="http://www.w3.org/2000/svg" xmlns:xlink="http://www.w3.org/1999/xlink" x="0px" y="0px"
	 viewBox="0 0 226.1 226.1" enable-background="new 0 0 226.1 226.1" xml:space="preserve">
<g>
	<defs>
		<rect id="SVGID_7_" x="-2241.1" y="-893.1" width="1980" height="970"/>
	</defs>
	<use xlink:href="#SVGID_7_"  overflow="visible"/>
	<clipPath id="SVGID_2_">
		<use xlink:href="#SVGID_7_"  overflow="visible"/>
	</clipPath>
</g>
<g>
	<circle fill="#FFFFFF" stroke="#8BCED3" stroke-width="5" stroke-miterlimit="10" cx="113" cy="113" r="110.5"/>
	<g>
		
			<ellipse transform="matrix(0.9929 0.1189 -0.1189 0.9929 15.4292 -12.5667)" fill="#FFFFFF" cx="113" cy="123" rx="57.1" ry="18.2"/>
		<g>
			
				<ellipse transform="matrix(0.999 4.377084e-02 -4.377084e-02 0.999 4.1849 -3.9995)" fill="#FFFFFF" cx="93.4" cy="93.6" rx="33.4" ry="9.4"/>
		</g>
		<g>
			
				<ellipse transform="matrix(0.9999 1.066098e-02 -1.066098e-02 0.9999 0.614 -0.996)" fill="#FFFFFF" cx="93.7" cy="57.1" rx="18.9" ry="8.3"/>
		</g>
		<path fill="#8BCED3" d="M155.4,113.3c-10.2-4.7-24-8.2-38.9-10.1c0.8-0.2,1.6-0.4,2.4-0.6c6.3-1.8,9.6-4.3,9.8-7.5
			c0.1-2.4-1.6-4.4-4.6-6.2c0.4,0,0.8,0,1.3,0c9.7,0,15.8-2.5,16.7-6.8c0.5-2.3-0.4-5.9-7.3-9.9c-4.8-2.8-11.4-5.1-18.5-6.5
			c-2.6-0.5-5.3-0.9-7.9-1.1c3.9-1.8,6.2-4.4,6.2-7.3c0-3-2.3-5.8-6.6-7.7c-3.8-1.7-8.8-2.7-14.1-2.8C82,46.7,73,51.1,73,56.9
			c0,3,2.3,5.8,6.6,7.7c2.7,1.2,6,2.1,9.6,2.5c-1.8,1.1-2.8,2.5-3.2,4.1c-0.5,2.3,0.4,5.9,7.3,9.9c0.8,0.5,1.7,0.9,2.6,1.4
			c-0.7,0-1.3-0.1-2-0.1c-1.8-0.1-3.5-0.1-5.3-0.1c-7.9,0-15.3,0.8-20.7,2.3c-6.3,1.8-9.6,4.3-9.8,7.5C58,95.5,61.7,98.6,69,101
			c2.5,0.8,5.3,1.5,8.3,2.1c-3.7,0.6-7,1.3-9.9,2.2c-10,3.1-12.5,7.6-12.9,10.7c-0.7,5.8,4.9,11.6,16.2,16.7
			c7.8,3.6,17.7,6.5,28.7,8.5c-8.5,0.5-16.3,2-22.5,4.2c-11.1,3.9-13.6,9-13.7,12.6c-0.2,5.4,4.9,10.6,14.5,14.5
			c9,3.7,21,6,33.8,6.6c1.9,0.1,3.9,0.1,5.8,0.1c11.6,0,22.4-1.6,30.4-4.4c11.1-3.9,13.6-9,13.7-12.6c0.2-5.4-4.9-10.6-14.5-14.5
			c-3.4-1.4-7.2-2.6-11.3-3.6c9.1-0.3,17.1-1.4,23.2-3.4c10-3.1,12.5-7.6,12.9-10.7C172.3,124.2,166.7,118.5,155.4,113.3z
			 M76.8,56.9c0-3,7.1-6.3,16.6-6.3l0.4,0c4.8,0.1,9.2,0.9,12.5,2.4c2.7,1.2,4.4,2.8,4.3,4.2c0,3-7.1,6.3-16.6,6.3l-0.4,0
			c-4.8-0.1-9.2-0.9-12.5-2.4C78.4,59.9,76.8,58.3,76.8,56.9z M62,92.2c0-0.8,1.5-2.5,7-4C74,86.8,81,86,88.7,86
			c1.7,0,3.4,0,5.1,0.1c8.7,0.4,16.9,1.7,22.9,3.7c6.5,2.2,8.2,4.3,8.2,5.2c0,0.8-1.5,2.5-7,4c-5.1,1.4-12.1,2.2-19.7,2.2
			c-1.7,0-3.4,0-5.1-0.1c-8.7-0.4-16.9-1.7-22.9-3.7C63.6,95.2,62,93,62,92.2z M167.8,129.6c-0.3,2.9-4,5.6-10.3,7.6
			c-6.8,2.1-16,3.3-26.6,3.3c-6.4,0-13.1-0.4-19.9-1.2c-15-1.8-28.8-5.3-38.9-9.9c-9.2-4.2-14.4-9-14-12.8c0.3-2.9,4-5.6,10.3-7.6
			c6.8-2.1,16-3.3,26.6-3.3c6.4,0,13.1,0.4,19.9,1.2c15,1.8,28.8,5.3,38.9,9.9C163.1,121,168.3,125.8,167.8,129.6z"/>
	</g>
</g>
</svg>
