<?xml version="1.0" encoding="utf-8"?>
<!-- Generator: Adobe Illustrator 18.0.0, SVG Export Plug-In . SVG Version: 6.00 Build 0)  -->
<!DOCTYPE svg PUBLIC "-//W3C//DTD SVG 1.1//EN" "http://www.w3.org/Graphics/SVG/1.1/DTD/svg11.dtd">
<svg version="1.1" id="Calque_1" xmlns="http://www.w3.org/2000/svg" xmlns:xlink="http://www.w3.org/1999/xlink" x="0px" y="0px"
	 viewBox="476.8 919.8 1027.2 1159.5" enable-background="new 476.8 919.8 1027.2 1159.5" xml:space="preserve">
<g>
	<g>
		<rect id="SVGID_7_" x="-19625.7" y="-7311" width="17339.2" height="8494.5"/>
	</g>
</g>
<g>
	<g>
		
			<ellipse transform="matrix(0.1189 -0.9929 0.9929 0.1189 -703.9182 2380.9509)" fill="#FFFFFF" cx="989.6" cy="1587.1" rx="159.4" ry="500"/>
		<g>
			
				<ellipse transform="matrix(4.377261e-02 -0.999 0.999 4.377261e-02 -546.2823 2088.5181)" fill="#FFFFFF" cx="817.9" cy="1329.6" rx="82.3" ry="292.5"/>
		</g>
		<g>
			
				<ellipse transform="matrix(1.066148e-02 -0.9999 0.9999 1.066148e-02 -198.1892 1819.7086)" fill="#FFFFFF" cx="820.5" cy="1010" rx="72.7" ry="165.5"/>
		</g>
		<path fill="#8BCED3" d="M1360.9,1502.2c-89.3-41.2-210.2-71.8-340.7-88.4c7-1.8,14-3.5,21-5.3c55.2-15.8,84.1-37.7,85.8-65.7
			c0.9-21-14-38.5-40.3-54.3c3.5,0,7,0,11.4,0c84.9,0,138.4-21.9,146.2-59.5c4.4-20.1-3.5-51.7-63.9-86.7
			c-42-24.5-99.8-44.7-162-56.9c-22.8-4.4-46.4-7.9-69.2-9.6c34.2-15.8,54.3-38.5,54.3-63.9c0-26.3-20.1-50.8-57.8-67.4
			c-33.3-14.9-77.1-23.6-123.5-24.5c-104.2-0.9-183,37.7-183,88.4c0,26.3,20.1,50.8,57.8,67.4c23.6,10.5,52.5,18.4,84.1,21.9
			c-15.8,9.6-24.5,21.9-28,35.9c-4.4,20.1,3.5,51.7,63.9,86.7c7,4.4,14.9,7.9,22.8,12.3c-6.1,0-11.4-0.9-17.5-0.9
			c-15.8-0.9-30.7-0.9-46.4-0.9c-69.2,0-134,7-181.3,20.1c-55.2,15.8-84.1,37.7-85.8,65.7c-0.9,29.8,31.5,56.9,95.5,77.9
			c21.9,7,46.4,13.1,72.7,18.4c-32.4,5.3-61.3,11.4-86.7,19.3c-87.6,27.1-109.5,66.6-113,93.7c-6.1,50.8,42.9,101.6,141.9,146.2
			c68.3,31.5,155,56.9,251.3,74.4c-74.4,4.4-142.7,17.5-197,36.8c-97.2,34.2-119.1,78.8-120,110.3c-1.8,47.3,42.9,92.8,127,127
			c78.8,32.4,183.9,52.5,296,57.8c16.6,0.9,34.2,0.9,50.8,0.9c101.6,0,196.2-14,266.2-38.5c97.2-34.2,119.1-78.8,120-110.3
			c1.8-47.3-42.9-92.8-127-127c-29.8-12.3-63.1-22.8-99-31.5c79.7-2.6,149.7-12.3,203.2-29.8c87.6-27.1,109.5-66.6,113-93.7
			C1508.9,1597.6,1459.8,1547.7,1360.9,1502.2z M672.6,1008.3c0-26.3,62.2-55.2,145.4-55.2h3.5c42,0.9,80.6,7.9,109.5,21
			c23.6,10.5,38.5,24.5,37.7,36.8c0,26.3-62.2,55.2-145.4,55.2h-3.5c-42-0.9-80.6-7.9-109.5-21
			C686.6,1034.6,672.6,1020.5,672.6,1008.3z M542.9,1317.4c0-7,13.1-21.9,61.3-35c43.8-12.3,105.1-19.3,172.5-19.3
			c14.9,0,29.8,0,44.7,0.9c76.2,3.5,148,14.9,200.5,32.4c56.9,19.3,71.8,37.7,71.8,45.5c0,7-13.1,21.9-61.3,35
			c-44.7,12.3-106,19.3-172.5,19.3c-14.9,0-29.8,0-44.7-0.9c-76.2-3.5-148-14.9-200.5-32.4C557,1343.7,542.9,1324.4,542.9,1317.4z
			 M1469.5,1644.9c-2.6,25.4-35,49-90.2,66.6c-59.5,18.4-140.1,28.9-232.9,28.9c-56,0-114.7-3.5-174.3-10.5
			c-131.4-15.8-252.2-46.4-340.7-86.7c-80.6-36.8-126.1-78.8-122.6-112.1c2.6-25.4,35-49,90.2-66.6c59.5-18.4,140.1-28.9,232.9-28.9
			c56,0,114.7,3.5,174.3,10.5c131.4,15.8,252.2,46.4,340.7,86.7C1428.3,1569.6,1473.8,1611.7,1469.5,1644.9z"/>
	</g>
</g>
</svg>
